<svg width="43" height="45" viewBox="0 0 43 45" fill="none" xmlns="http://www.w3.org/2000/svg">
  <path d="M40.7995 11.9004C38.2033 11.8977 35.7143 10.8652 33.8786 9.02946C32.0428 7.19371 31.0103 4.70468 31.0076 2.10854C31.0076 1.67571 30.8357 1.26061 30.5296 0.954558C30.2235 0.648503 29.8084 0.476563 29.3756 0.476562H21.2157C20.7829 0.476563 20.3678 0.648503 20.0617 0.954558C19.7557 1.26061 19.5837 1.67571 19.5837 2.10854V29.0362C19.5834 29.7663 19.3872 30.4829 19.0155 31.1113C18.6439 31.7397 18.1104 32.2568 17.4708 32.6088C16.8312 32.9608 16.1088 33.1347 15.3791 33.1124C14.6493 33.09 13.939 32.8723 13.3221 32.4819C12.7051 32.0915 12.2043 31.5427 11.8717 30.8928C11.5392 30.2429 11.3871 29.5156 11.4314 28.7869C11.4756 28.0581 11.7147 27.3546 12.1235 26.7497C12.5323 26.1449 13.0959 25.6608 13.7555 25.3479C14.0346 25.2155 14.2703 25.0066 14.4353 24.7455C14.6004 24.4844 14.6879 24.1819 14.6878 23.873V15.1644C14.6879 14.9258 14.6357 14.6901 14.5349 14.4739C14.4341 14.2577 14.2871 14.0663 14.1043 13.913C13.9214 13.7597 13.7072 13.6484 13.4768 13.5869C13.2463 13.5254 13.0051 13.5151 12.7702 13.5569C5.48957 14.8543 0 21.5087 0 29.0362C0 33.148 1.63343 37.0915 4.54096 39.999C7.44848 42.9065 11.3919 44.54 15.5038 44.54C19.6157 44.54 23.5591 42.9065 26.4666 39.999C29.3742 37.0915 31.0076 33.148 31.0076 29.0362V20.9355C34.0301 22.5124 37.3903 23.3322 40.7995 23.3243C41.2323 23.3243 41.6474 23.1523 41.9535 22.8463C42.2595 22.5402 42.4314 22.1251 42.4314 21.6923V13.5324C42.4314 13.0996 42.2595 12.6845 41.9535 12.3784C41.6474 12.0724 41.2323 11.9004 40.7995 11.9004ZM39.1675 19.9869C35.9783 19.7043 32.9245 18.566 30.3283 16.6923C30.0843 16.5169 29.7966 16.4122 29.4968 16.3899C29.1971 16.3676 28.8971 16.4284 28.6298 16.5658C28.3625 16.7031 28.1383 16.9116 27.9819 17.1683C27.8255 17.4249 27.7431 17.7198 27.7436 18.0203V29.0362C27.7436 32.2824 26.4541 35.3956 24.1587 37.6911C21.8633 39.9865 18.75 41.276 15.5038 41.276C12.2576 41.276 9.14434 39.9865 6.84892 37.6911C4.55351 35.3956 3.26396 32.2824 3.26396 29.0362C3.26396 23.7527 6.65847 19.0138 11.4239 17.2859V22.9305C10.3689 23.6354 9.51453 24.6016 8.94406 25.7349C8.37359 26.8682 8.10648 28.13 8.16874 29.3973C8.23101 30.6645 8.62054 31.894 9.29937 32.966C9.97819 34.0379 10.9231 34.9157 12.0421 35.5137C13.1611 36.1118 14.416 36.4097 15.6844 36.3785C16.9528 36.3473 18.1915 35.988 19.2797 35.3357C20.368 34.6833 21.2686 33.7602 21.8939 32.6562C22.5192 31.5522 22.8478 30.305 22.8477 29.0362V3.74052H27.8456C28.2127 6.61501 29.5235 9.28634 31.5726 11.3354C33.6217 13.3845 36.293 14.6954 39.1675 15.0624V19.9869Z" fill="white"/>
</svg>