<svg width="42" height="40" viewBox="0 0 42 40" fill="none" xmlns="http://www.w3.org/2000/svg">
  <path d="M20.7092 0C16.6133 0 12.6094 1.16177 9.20381 3.33839C5.7982 5.51501 3.14384 8.60873 1.57641 12.2283C0.008973 15.8479 -0.401139 19.8308 0.397932 23.6734C1.197 27.5159 3.16937 31.0455 6.06561 33.8158C8.96185 36.5861 12.6519 38.4727 16.6691 39.2371C20.6863 40.0014 24.8502 39.6091 28.6343 38.1098C32.4185 36.6105 35.6528 34.0716 37.9284 30.814C40.2039 27.5565 41.4185 23.7267 41.4185 19.8088C41.4127 14.5569 39.229 9.52168 35.3465 5.808C31.464 2.09432 26.1999 0.00554613 20.7092 0ZM22.3023 36.4997V24.3801H27.0813C27.5038 24.3801 27.909 24.2196 28.2078 23.9338C28.5065 23.6481 28.6743 23.2605 28.6743 22.8564C28.6743 22.4522 28.5065 22.0646 28.2078 21.7789C27.909 21.4931 27.5038 21.3326 27.0813 21.3326H22.3023V16.7613C22.3023 15.9531 22.6379 15.1779 23.2354 14.6064C23.8329 14.0349 24.6433 13.7138 25.4883 13.7138H28.6743C29.0968 13.7138 29.502 13.5533 29.8008 13.2675C30.0995 12.9818 30.2674 12.5942 30.2674 12.1901C30.2674 11.7859 30.0995 11.3984 29.8008 11.1126C29.502 10.8268 29.0968 10.6663 28.6743 10.6663H25.4883C23.7983 10.6663 22.1776 11.3085 20.9826 12.4515C19.7876 13.5945 19.1162 15.1448 19.1162 16.7613V21.3326H14.3372C13.9147 21.3326 13.5095 21.4931 13.2107 21.7789C12.912 22.0646 12.7442 22.4522 12.7442 22.8564C12.7442 23.2605 12.912 23.6481 13.2107 23.9338C13.5095 24.2196 13.9147 24.3801 14.3372 24.3801H19.1162V36.4997C14.6255 36.1076 10.4657 34.0746 7.50201 30.8236C4.53835 27.5727 2.99901 23.354 3.2042 19.0451C3.40938 14.7362 5.34329 10.6689 8.60366 7.68908C11.864 4.70928 16.1998 3.04645 20.7092 3.04645C25.2187 3.04645 29.5545 4.70928 32.8148 7.68908C36.0752 10.6689 38.0091 14.7362 38.2143 19.0451C38.4195 23.354 36.8802 27.5727 33.9165 30.8236C30.9528 34.0746 26.793 36.1076 22.3023 36.4997Z" fill="white"/>
</svg>