<svg width="39" height="39" viewBox="0 0 39 39" fill="none" xmlns="http://www.w3.org/2000/svg">
  <path d="M35.1157 0H2.92631C2.1502 0 1.40588 0.314235 0.857095 0.873578C0.308306 1.43292 0 2.19155 0 2.98258V35.791C0 36.582 0.308306 37.3406 0.857095 37.9C1.40588 38.4593 2.1502 38.7736 2.92631 38.7736H35.1157C35.8918 38.7736 36.6361 38.4593 37.1849 37.9C37.7337 37.3406 38.042 36.582 38.042 35.791V2.98258C38.042 2.19155 37.7337 1.43292 37.1849 0.873578C36.6361 0.314235 35.8918 0 35.1157 0ZM35.1157 35.791H2.92631V2.98258H35.1157V35.791ZM13.1684 16.4042V28.3345C13.1684 28.73 13.0142 29.1094 12.7398 29.389C12.4654 29.6687 12.0933 29.8258 11.7052 29.8258C11.3172 29.8258 10.945 29.6687 10.6706 29.389C10.3962 29.1094 10.2421 28.73 10.2421 28.3345V16.4042C10.2421 16.0087 10.3962 15.6294 10.6706 15.3497C10.945 15.07 11.3172 14.9129 11.7052 14.9129C12.0933 14.9129 12.4654 15.07 12.7398 15.3497C13.0142 15.6294 13.1684 16.0087 13.1684 16.4042ZM29.2631 21.6237V28.3345C29.2631 28.73 29.1089 29.1094 28.8345 29.389C28.5601 29.6687 28.188 29.8258 27.7999 29.8258C27.4119 29.8258 27.0397 29.6687 26.7653 29.389C26.4909 29.1094 26.3368 28.73 26.3368 28.3345V21.6237C26.3368 20.6349 25.9514 19.6866 25.2654 18.9875C24.5794 18.2883 23.649 17.8955 22.6789 17.8955C21.7087 17.8955 20.7783 18.2883 20.0924 18.9875C19.4064 19.6866 19.021 20.6349 19.021 21.6237V28.3345C19.021 28.73 18.8668 29.1094 18.5924 29.389C18.3181 29.6687 17.9459 29.8258 17.5578 29.8258C17.1698 29.8258 16.7976 29.6687 16.5232 29.389C16.2488 29.1094 16.0947 28.73 16.0947 28.3345V16.4042C16.0965 16.0389 16.2298 15.687 16.4693 15.4153C16.7088 15.1435 17.0378 14.9708 17.3939 14.9298C17.7501 14.8889 18.1085 14.9827 18.4014 15.1933C18.6942 15.4039 18.901 15.7167 18.9826 16.0724C19.9724 15.388 21.1264 14.9914 22.3207 14.9251C23.515 14.8587 24.7044 15.1252 25.7613 15.696C26.8182 16.2667 27.7026 17.12 28.3195 18.1644C28.9365 19.2087 29.2627 20.4047 29.2631 21.6237ZM13.9 11.1847C13.9 11.6271 13.7712 12.0596 13.5301 12.4275C13.2889 12.7953 12.9461 13.082 12.5451 13.2513C12.1441 13.4207 11.7028 13.4649 11.2771 13.3786C10.8513 13.2923 10.4603 13.0793 10.1533 12.7664C9.84638 12.4536 9.63735 12.055 9.55267 11.6211C9.46798 11.1872 9.51145 10.7374 9.67756 10.3286C9.84367 9.9199 10.125 9.57053 10.4859 9.32474C10.8468 9.07894 11.2712 8.94775 11.7052 8.94775C12.2873 8.94775 12.8455 9.18342 13.2571 9.60293C13.6687 10.0224 13.9 10.5914 13.9 11.1847Z" fill="white"/>
</svg>