<svg width="40" height="39" viewBox="0 0 40 39" fill="none" xmlns="http://www.w3.org/2000/svg">
  <path d="M19.7526 10.439C17.9495 10.439 16.1869 10.9638 14.6877 11.947C13.1885 12.9302 12.02 14.3276 11.33 15.9626C10.6399 17.5976 10.4594 19.3967 10.8112 21.1324C11.1629 22.8681 12.0312 24.4624 13.3062 25.7138C14.5812 26.9652 16.2056 27.8174 17.974 28.1626C19.7425 28.5079 21.5755 28.3307 23.2413 27.6534C24.9072 26.9762 26.331 25.8293 27.3327 24.3579C28.3345 22.8864 28.8691 21.1565 28.8691 19.3868C28.8666 17.0145 27.9053 14.74 26.1962 13.0625C24.487 11.385 22.1697 10.4415 19.7526 10.439ZM19.7526 25.3519C18.5505 25.3519 17.3754 25.0021 16.376 24.3466C15.3765 23.6912 14.5975 22.7595 14.1375 21.6695C13.6775 20.5796 13.5571 19.3802 13.7916 18.223C14.0261 17.0659 14.605 16.003 15.455 15.1688C16.305 14.3345 17.3879 13.7664 18.5669 13.5362C19.7458 13.3061 20.9679 13.4242 22.0784 13.8757C23.189 14.3272 24.1382 15.0917 24.806 16.0727C25.4738 17.0537 25.8303 18.207 25.8303 19.3868C25.8303 20.9688 25.19 22.4861 24.0502 23.6048C22.9104 24.7235 21.3645 25.3519 19.7526 25.3519ZM28.8691 0H10.636C7.81608 0.00296063 5.11253 1.10374 3.11854 3.06079C1.12456 5.01785 0.00301649 7.67134 0 10.439V28.3345C0.00301649 31.1022 1.12456 33.7557 3.11854 35.7128C5.11253 37.6698 7.81608 38.7706 10.636 38.7736H28.8691C31.6891 38.7706 34.3926 37.6698 36.3866 35.7128C38.3806 33.7557 39.5021 31.1022 39.5051 28.3345V10.439C39.5021 7.67134 38.3806 5.01785 36.3866 3.06079C34.3926 1.10374 31.6891 0.00296063 28.8691 0ZM36.4663 28.3345C36.4663 30.3121 35.6659 32.2087 34.2411 33.607C32.8164 35.0054 30.884 35.791 28.8691 35.791H10.636C8.62111 35.791 6.68875 35.0054 5.26401 33.607C3.83927 32.2087 3.03886 30.3121 3.03886 28.3345V10.439C3.03886 8.46146 3.83927 6.56488 5.26401 5.16653C6.68875 3.76817 8.62111 2.98258 10.636 2.98258H28.8691C30.884 2.98258 32.8164 3.76817 34.2411 5.16653C35.6659 6.56488 36.4663 8.46146 36.4663 10.439V28.3345ZM31.908 9.69339C31.908 10.1358 31.7743 10.5683 31.5239 10.9362C31.2735 11.304 30.9175 11.5907 30.501 11.7601C30.0846 11.9294 29.6263 11.9737 29.1842 11.8873C28.7421 11.801 28.336 11.588 28.0173 11.2751C27.6985 10.9623 27.4814 10.5637 27.3935 10.1298C27.3056 9.69587 27.3507 9.2461 27.5232 8.83735C27.6957 8.42861 27.9878 8.07924 28.3626 7.83345C28.7374 7.58765 29.1781 7.45645 29.6289 7.45645C30.2333 7.45645 30.813 7.69213 31.2404 8.11164C31.6679 8.53115 31.908 9.10012 31.908 9.69339Z" fill="white"/>
</svg>