<svg width="524" height="490" viewBox="0 0 524 490" fill="none" xmlns="http://www.w3.org/2000/svg">
  <g filter="url(#filter0_f_441_732)">
    <path d="M725.529 3.25084C716.406 0.470627 707.283 -2.15509 698.16 -4.62639C699.681 -10.3413 701.032 -16.0562 702.384 -21.771C723.164 -113.827 709.479 -187.811 663.357 -212.215C618.925 -235.538 546.447 -211.289 473.125 -152.904C465.86 -147.189 458.765 -141.166 452.007 -135.142C447.445 -139.158 442.715 -143.173 437.984 -147.035C361.114 -209.435 284.075 -235.693 237.953 -211.134C193.689 -187.657 180.512 -117.997 199.096 -30.8839C200.954 -22.2344 202.981 -13.7393 205.347 -5.0898C194.534 -2.30959 183.891 0.779541 173.923 4.02312C83.706 32.5975 19 77.6987 19 124.344C19 172.535 87.9297 220.879 181.694 250.226C189.297 252.543 196.899 254.86 204.671 256.868C202.137 266.135 199.94 275.248 197.913 284.67C180.174 370.393 194.027 438.354 238.291 461.676C283.906 485.771 360.607 461.058 435.281 401.284C441.194 396.496 447.107 391.553 453.02 386.302C460.454 392.943 468.226 399.276 475.997 405.454C548.306 462.294 619.77 485.308 663.864 461.985C709.48 437.89 724.347 364.832 705.087 275.866C703.566 269.07 701.877 262.119 700.019 255.014C705.425 253.624 710.662 252.08 715.899 250.535C813.381 221.034 884 173.307 884 124.344C884 77.5442 817.436 32.1341 725.529 3.25084ZM496.946 -127.882C559.794 -177.926 618.418 -197.542 645.111 -183.486C673.663 -168.504 684.645 -107.958 666.736 -28.4126C665.554 -23.1611 664.371 -18.0641 662.851 -12.967C625.345 -20.6898 587.332 -26.2502 549.15 -29.3394C527.187 -58.0682 503.197 -85.5614 477.18 -111.356C483.769 -117.07 490.188 -122.476 496.946 -127.882ZM301.477 204.507C310.093 217.945 318.878 231.382 328.17 244.511C301.814 241.885 275.628 238.024 249.779 232.927C257.213 210.685 266.505 187.671 277.317 164.194C285.089 177.786 293.029 191.224 301.477 204.507ZM250.286 18.6964C274.614 13.7538 300.463 9.73798 327.325 6.64886C318.371 19.4687 309.586 32.5975 301.308 45.8807C293.029 59.0095 284.92 72.4471 277.317 86.0393C266.674 63.0253 257.72 40.4747 250.286 18.6964ZM296.577 125.117C307.728 103.802 319.892 82.9501 332.731 62.4075C345.571 41.8648 359.425 21.94 373.954 2.32411C399.296 0.625092 425.145 -0.301682 451.5 -0.301682C477.855 -0.301682 503.873 0.625092 529.046 2.32411C543.406 21.7856 557.091 41.7104 570.1 62.0986C583.108 82.4868 595.272 103.338 606.761 124.499C595.441 145.814 583.277 166.82 570.268 187.517C557.429 208.06 543.744 227.984 529.384 247.755C504.211 249.454 478.024 250.226 451.5 250.226C424.976 250.226 399.296 249.454 374.461 248.064C359.763 228.448 345.909 208.368 332.9 187.826C319.892 167.283 307.896 146.432 296.577 125.117ZM601.692 204.198C610.309 190.606 618.418 176.859 626.358 162.958C637.171 185.355 646.632 208.059 654.91 231.382C628.724 236.788 602.199 240.959 575.506 243.739C584.629 230.765 593.245 217.481 601.692 204.198ZM626.02 86.0393C618.08 72.4471 609.971 58.855 601.523 45.5718C593.245 32.4431 584.629 19.4687 575.675 6.64886C602.875 9.73798 628.893 13.9083 653.221 19.0054C645.449 41.8649 636.326 64.1065 626.02 86.0393ZM451.838 -87.7238C469.577 -70.1158 486.303 -51.5811 501.846 -32.4285C468.395 -33.8186 434.774 -33.8186 401.323 -32.4285C417.88 -52.3533 434.943 -70.8881 451.838 -87.7238ZM255.861 -182.405C284.244 -197.542 347.261 -175.918 413.656 -122.167C417.88 -118.769 422.104 -115.062 426.496 -111.356C400.31 -85.5614 376.15 -58.0682 354.019 -29.3394C315.837 -26.2502 277.993 -20.8443 240.487 -13.276C238.291 -21.1532 236.433 -29.1849 234.574 -37.2166C218.693 -111.973 229.168 -168.35 255.861 -182.405ZM214.47 224.741C207.374 222.887 200.447 220.879 193.521 218.717C157.535 208.368 116.65 191.996 87.085 170.527C70.0215 159.715 58.5332 143.034 55.3232 124.344C55.3232 96.0789 108.71 59.9362 185.749 35.3777C195.379 32.2886 205.178 29.5083 214.977 26.8826C226.465 60.3996 240.318 93.2987 256.368 125.117C240.149 157.398 226.127 190.76 214.47 224.741ZM411.46 376.108C383.584 399.431 351.315 417.965 316.175 430.631C297.422 438.817 275.797 439.589 256.537 432.639C229.675 418.429 218.524 363.906 233.729 290.539C235.588 281.89 237.615 273.24 239.98 264.745C277.824 272.159 316.006 277.256 354.694 279.882C376.995 308.765 401.492 336.413 427.679 362.361C422.272 367.149 416.866 371.783 411.46 376.108ZM452.852 338.575C435.619 321.585 418.387 302.741 401.661 282.507C417.88 283.125 434.605 283.434 451.5 283.434C468.901 283.434 485.965 283.125 502.859 282.353C487.316 301.969 470.591 320.658 452.852 338.575ZM673.663 384.912C672.143 403.755 662.006 421.363 645.787 433.256C618.925 447.466 561.652 428.932 499.818 380.432C492.723 374.872 485.627 368.848 478.362 362.67C504.211 336.567 528.032 308.919 549.657 279.882C588.346 276.947 626.865 271.541 664.878 263.664C666.567 269.996 668.088 276.329 669.439 282.507C677.718 315.87 679.069 350.622 673.663 384.912ZM704.411 218.871C699.681 220.262 694.95 221.652 690.051 222.887C678.225 189.216 663.695 156.317 646.97 124.344C663.189 92.8354 676.873 60.3996 688.361 27.1915C697.147 29.5084 705.594 31.9797 713.703 34.451C792.432 59.1639 847.677 95.9244 847.677 124.035C847.677 154.309 788.715 193.386 704.411 218.871ZM451.5 195.703C494.243 195.703 528.877 164.04 528.877 124.962C528.877 85.8848 494.243 54.2213 451.5 54.2213C408.757 54.2213 374.123 85.8848 374.123 124.962C374.123 164.04 408.757 195.703 451.5 195.703Z" fill="#57D4EE"/>
  </g>
  <defs>
    <filter id="filter0_f_441_732" x="0.81188" y="-239.188" width="901.376" height="728.376" filterUnits="userSpaceOnUse" color-interpolation-filters="sRGB">
      <feFlood flood-opacity="0" result="BackgroundImageFix"/>
      <feBlend mode="normal" in="SourceGraphic" in2="BackgroundImageFix" result="shape"/>
      <feGaussianBlur stdDeviation="9.09406" result="effect1_foregroundBlur_441_732"/>
    </filter>
  </defs>
</svg>