<svg width="321" height="439" viewBox="0 0 321 439" fill="none" xmlns="http://www.w3.org/2000/svg">
<g filter="url(#filter0_f_441_833)">
<path d="M199.728 148.943C193.828 147.33 187.929 145.806 182.029 144.373C183.012 141.057 183.886 137.741 184.76 134.425C198.199 81.0132 189.349 38.0866 159.522 23.927C130.788 10.3949 83.9172 24.4648 36.5003 58.34C31.8023 61.6559 27.2135 65.1509 22.8433 68.646C19.8934 66.316 16.8343 63.9859 13.7751 61.7455C-35.9362 25.5402 -85.7567 10.3052 -115.583 24.5544C-144.208 38.1762 -152.73 78.5935 -140.712 129.138C-139.51 134.156 -138.199 139.085 -136.67 144.104C-143.662 145.717 -150.545 147.509 -156.991 149.391C-215.334 165.97 -257.179 192.138 -257.179 219.203C-257.179 247.163 -212.602 275.214 -151.966 292.241C-147.049 293.585 -142.133 294.929 -137.107 296.094C-138.746 301.471 -140.166 306.759 -141.477 312.225C-152.949 361.963 -143.99 401.395 -115.365 414.927C-85.866 428.907 -36.2639 414.568 12.027 379.886C15.851 377.108 19.6749 374.241 23.4989 371.194C28.3061 375.047 33.3319 378.721 38.3576 382.306C85.119 415.285 131.334 428.638 159.85 415.106C189.349 401.126 198.963 358.737 186.508 307.117C185.525 303.174 184.432 299.141 183.231 295.019C186.727 294.212 190.114 293.316 193.501 292.42C256.541 275.303 302.21 247.611 302.21 219.203C302.21 192.049 259.163 165.701 199.728 148.943ZM51.9053 72.858C92.5484 43.8221 130.46 32.4407 147.722 40.5958C166.187 49.2887 173.288 84.4186 161.707 130.571C160.942 133.618 160.178 136.576 159.194 139.533C134.94 135.052 110.357 131.826 85.6653 130.034C71.462 113.365 55.9478 97.4131 39.1224 82.447C43.3834 79.1312 47.5351 75.9946 51.9053 72.858ZM-74.5034 265.714C-68.9314 273.511 -63.2501 281.307 -57.241 288.925C-74.2849 287.401 -91.2195 285.161 -107.936 282.204C-103.128 269.299 -97.1193 255.946 -90.1269 242.324C-85.1012 250.21 -79.9662 258.007 -74.5034 265.714ZM-107.608 157.905C-91.875 155.037 -75.1589 152.707 -57.7873 150.915C-63.5778 158.353 -69.2591 165.97 -74.6126 173.677C-79.9662 181.295 -85.2104 189.091 -90.1269 196.978C-97.01 183.625 -102.801 170.541 -107.608 157.905ZM-77.6718 219.651C-70.4609 207.284 -62.5945 195.185 -54.2911 183.266C-45.9877 171.347 -37.0287 159.787 -27.6327 148.405C-11.2444 147.419 5.47171 146.882 22.5156 146.882C39.5594 146.882 56.3848 147.419 72.6639 148.405C81.9506 159.697 90.8003 171.258 99.213 183.087C107.626 194.917 115.492 207.015 122.921 219.292C115.601 231.66 107.735 243.848 99.3222 255.856C91.0188 267.775 82.1691 279.336 72.8824 290.807C56.6033 291.793 39.6687 292.241 22.5156 292.241C5.36246 292.241 -11.2444 291.793 -27.305 290.986C-36.8102 279.605 -45.7692 267.955 -54.1818 256.035C-62.5945 244.116 -70.3517 232.018 -77.6718 219.651ZM119.644 265.535C125.216 257.649 130.46 249.673 135.595 241.607C142.587 254.602 148.706 267.775 154.059 281.307C137.125 284.444 119.972 286.864 102.709 288.477C108.609 280.949 114.181 273.242 119.644 265.535ZM135.377 196.978C130.242 189.091 124.997 181.205 119.535 173.498C114.181 165.881 108.609 158.353 102.818 150.915C120.409 152.707 137.234 155.127 152.967 158.084C147.941 171.347 142.041 184.252 135.377 196.978ZM22.7341 96.1585C34.2059 106.375 45.0222 117.129 55.0737 128.241C33.4411 127.435 11.6993 127.435 -9.93333 128.241C0.773712 116.681 11.8086 105.927 22.7341 96.1585ZM-104.002 41.2232C-85.6475 32.4407 -44.8951 44.9871 -1.95767 76.1739C0.773712 78.1454 3.5051 80.2962 6.34573 82.447C-10.5889 97.4131 -26.2124 113.365 -40.5249 130.034C-65.2167 131.826 -89.6899 134.963 -113.945 139.354C-115.365 134.783 -116.567 130.123 -117.769 125.463C-128.039 82.0886 -121.265 49.3783 -104.002 41.2232ZM-130.77 277.454C-135.359 276.379 -139.838 275.214 -144.318 273.959C-167.589 267.955 -194.029 258.455 -213.149 245.998C-224.184 239.725 -231.613 230.047 -233.689 219.203C-233.689 202.803 -199.164 181.832 -149.343 167.583C-143.116 165.791 -136.779 164.178 -130.442 162.654C-123.013 182.101 -114.054 201.19 -103.675 219.651C-114.163 238.381 -123.231 257.738 -130.77 277.454ZM-3.37799 365.279C-21.4052 378.811 -42.273 389.565 -64.9982 396.914C-77.1255 401.663 -91.1102 402.111 -103.565 398.079C-120.937 389.834 -128.148 358.199 -118.315 315.631C-117.113 310.612 -115.802 305.594 -114.272 300.665C-89.7992 304.966 -65.1074 307.924 -40.0879 309.447C-25.6661 326.206 -9.8241 342.247 7.11053 357.303C3.61435 360.081 0.118195 362.77 -3.37799 365.279ZM23.3896 343.502C12.2455 333.644 1.10147 322.711 -9.71483 310.971C0.773712 311.329 11.59 311.508 22.5156 311.508C33.7689 311.508 44.8037 311.329 55.7292 310.881C45.6777 322.263 34.8614 333.106 23.3896 343.502ZM166.187 370.387C165.203 381.32 158.648 391.537 148.159 398.437C130.788 406.682 93.7502 395.928 53.7627 367.788C49.174 364.562 44.5852 361.067 39.8872 357.482C56.6033 342.337 72.0084 326.295 85.9931 309.447C111.013 307.745 135.923 304.608 160.505 300.037C161.598 303.712 162.581 307.386 163.455 310.971C168.809 330.328 169.683 350.492 166.187 370.387ZM186.071 274.049C183.012 274.855 179.953 275.662 176.784 276.379C169.137 256.842 159.741 237.754 148.924 219.203C159.413 200.921 168.263 182.101 175.692 162.834C181.373 164.178 186.836 165.612 192.08 167.046C242.993 181.384 278.72 202.713 278.72 219.024C278.72 236.589 240.59 259.262 186.071 274.049ZM22.5156 260.606C50.1572 260.606 72.5546 242.234 72.5546 219.561C72.5546 196.888 50.1572 178.517 22.5156 178.517C-5.12608 178.517 -27.5235 196.888 -27.5235 219.561C-27.5235 242.234 -5.12608 260.606 22.5156 260.606Z" fill="#57D4EE"/>
</g>
<defs>
<filter id="filter0_f_441_833" x="-275.367" y="0.641958" width="595.765" height="437.882" filterUnits="userSpaceOnUse" color-interpolation-filters="sRGB">
<feFlood flood-opacity="0" result="BackgroundImageFix"/>
<feBlend mode="normal" in="SourceGraphic" in2="BackgroundImageFix" result="shape"/>
<feGaussianBlur stdDeviation="9.09406" result="effect1_foregroundBlur_441_833"/>
</filter>
</defs>
</svg> 